<?xml version="1.0" encoding="iso-8859-1"?>
<!-- Uploaded to: SVG Repo, www.svgrepo.com, Generator: SVG Repo Mixer Tools -->
<svg fill="#000000" height="800px" width="800px" version="1.1" id="Layer_1" xmlns="http://www.w3.org/2000/svg" xmlns:xlink="http://www.w3.org/1999/xlink" 
	 viewBox="0 0 512 512" xml:space="preserve">
<g>
	<g>
		<path d="M256,0c-25.02,0-50.347,9.455-50.347,27.537c0,11.896,10.982,20.028,25.6,24.226V460.8c0,1.084,0.205,2.159,0.606,3.174
			l17.067,42.667c1.306,3.234,4.437,5.359,7.928,5.359c3.49,0,6.622-2.125,7.927-5.359l17.067-42.667
			c0.401-1.016,0.606-2.091,0.606-3.174V51.268c13.764-4.326,23.893-12.297,23.893-23.731C306.347,9.455,281.02,0,256,0z
			 M265.387,459.162l-8.533,21.333l-8.533-21.333V54.758c2.551,0.196,5.111,0.324,7.68,0.324c3.14,0,6.281-0.154,9.387-0.444
			V459.162z M256,38.016c-21.478,0-33.28-7.868-33.28-10.479s11.802-10.47,33.28-10.47s33.28,7.859,33.28,10.47
			S277.478,38.016,256,38.016z" fill="#FD0000"/>
	</g>
</g>
</svg>